<?xml version="1.0" encoding="UTF-8"?>
<svg version="1.1" xmlns="http://www.w3.org/2000/svg" width="266" height="81">
<path d="M0 0 C3.25280684 1.51797652 5.59890215 3.34615501 8 6 C8.2475 5.38125 8.495 4.7625 8.75 4.125 C10.30552932 1.48060015 11.07621471 0.92330062 14 0 C18.84078166 -0.46846274 21.03389668 -0.50094246 25.375 1.75 C28.34922583 4.29933643 29.8082753 5.88082053 30.16851807 9.8626709 C30.23202103 12.21857133 30.22453522 14.56529782 30.1953125 16.921875 C30.1924826 17.78186096 30.18965271 18.64184692 30.18673706 19.52789307 C30.1755615 22.26873821 30.15046179 25.00925398 30.125 27.75 C30.1149668 29.61067236 30.10584155 31.47134985 30.09765625 33.33203125 C30.07563076 37.88814732 30.04111897 42.44401786 30 47 C28.18757948 47.02687279 26.37504767 47.04633715 24.5625 47.0625 C23.55316406 47.07410156 22.54382813 47.08570313 21.50390625 47.09765625 C19 47 19 47 18 46 C17.85330842 43.73327489 17.7724603 41.4622379 17.71875 39.19140625 C17.70034058 38.50948715 17.68193115 37.82756805 17.66296387 37.12498474 C17.60405061 34.93757985 17.55131486 32.75009557 17.5 30.5625 C17.43242419 27.68863359 17.35871883 24.81502102 17.28125 21.94140625 C17.25095703 20.65951416 17.22066406 19.37762207 17.18945312 18.05688477 C17.20523108 15.08460348 17.20523108 15.08460348 16 13 C14.35 13 12.7 13 11 13 C8.75027108 16.61535385 8.69284448 19.74811694 8.5859375 23.953125 C8.56657135 24.61334656 8.5472052 25.27356812 8.5272522 25.95379639 C8.46770651 28.05240153 8.42117278 30.15106228 8.375 32.25 C8.33679706 33.6771066 8.29774398 35.10419072 8.2578125 36.53125 C8.1620267 40.02062691 8.07790358 43.51017286 8 47 C6.18757948 47.02687279 4.37504767 47.04633715 2.5625 47.0625 C1.55316406 47.07410156 0.54382813 47.08570313 -0.49609375 47.09765625 C-3 47 -3 47 -4 46 C-4.12217993 43.74439959 -4.17980872 41.48525507 -4.2109375 39.2265625 C-4.23900872 37.83071749 -4.2676732 36.43488431 -4.296875 35.0390625 C-4.33814002 32.83138388 -4.37501283 30.62392544 -4.40136719 28.41601562 C-4.42896677 26.28989634 -4.47483918 24.16479155 -4.5234375 22.0390625 C-4.54325684 20.76240723 -4.56307617 19.48575195 -4.58349609 18.17041016 C-4.72363063 15.01022981 -4.72363063 15.01022981 -6.52978516 13.06005859 C-7.01495605 12.71023926 -7.50012695 12.36041992 -8 12 C-9.99983534 12.79117904 -9.99983534 12.79117904 -12 14 C-13.14294314 17.42882941 -13.20964472 20.24082838 -13.31640625 23.85546875 C-13.33718735 24.51710526 -13.35796844 25.17874176 -13.37937927 25.86042786 C-13.44464727 27.96934852 -13.50365344 30.07839135 -13.5625 32.1875 C-13.60570689 33.61915315 -13.64932188 35.05079404 -13.69335938 36.48242188 C-13.80030506 39.98815154 -13.90163641 43.49401786 -14 47 C-15.81242052 47.02687279 -17.62495233 47.04633715 -19.4375 47.0625 C-20.44683594 47.07410156 -21.45617188 47.08570313 -22.49609375 47.09765625 C-25 47 -25 47 -26 46 C-26.09795311 44.62390118 -26.12798088 43.24286118 -26.12939453 41.86328125 C-26.13254669 40.98567139 -26.13569885 40.10806152 -26.13894653 39.20385742 C-26.1369223 38.24970947 -26.13489807 37.29556152 -26.1328125 36.3125 C-26.13376923 35.33966064 -26.13472595 34.36682129 -26.13571167 33.36450195 C-26.13639358 31.303222 -26.13453853 29.24193992 -26.13037109 27.18066406 C-26.125023 24.01362312 -26.13031572 20.846724 -26.13671875 17.6796875 C-26.13605797 15.68229135 -26.13477681 13.68489529 -26.1328125 11.6875 C-26.13483673 10.73335205 -26.13686096 9.7792041 -26.13894653 8.79614258 C-26.13579437 7.91853271 -26.13264221 7.04092285 -26.12939453 6.13671875 C-26.12859894 5.36030029 -26.12780334 4.58388184 -26.12698364 3.78393555 C-26 2 -26 2 -25 1 C-23.35769636 0.8754514 -21.70947724 0.82431476 -20.0625 0.8125 C-19.16660156 0.79832031 -18.27070312 0.78414063 -17.34765625 0.76953125 C-15 1 -15 1 -13 3 C-12.34 2.505 -11.68 2.01 -11 1.5 C-7.17736752 -0.41131624 -4.20031218 -0.63899272 0 0 Z " fill="#44e5e7" transform="translate(72,1)"/>
<path d="M0 0 C4.05370598 3.51321185 5.54633164 6.96437956 6.1105957 12.20727539 C6.25874963 15.36898622 6.33505831 18.5225967 6.375 21.6875 C6.40940893 23.83869562 6.45199849 25.98978048 6.50390625 28.140625 C6.51623291 29.08583008 6.52855957 30.03103516 6.54125977 31.00488281 C6.6528021 33.69529032 6.6528021 33.69529032 8.8125 36.4375 C8.70820746 39.56627617 7.54671899 40.76972626 5.5625 43.25 C2.8125 45.4375 2.8125 45.4375 0.1875 45.4375 C-2.23930407 44.41568776 -3.52327238 43.45209133 -5.1875 41.4375 C-5.909375 42.0975 -6.63125 42.7575 -7.375 43.4375 C-12.25208071 46.70444402 -18.59178931 46.38996139 -24.1875 45.4375 C-28.03022916 42.86148765 -30.05503867 40.96734533 -31.1875 36.4375 C-31.63469064 30.80289794 -31.38471016 27.28843956 -28.1875 22.4375 C-22.61476079 16.86476079 -15.68036305 16.22622243 -8.1875 15.4375 C-8.1875 13.7875 -8.1875 12.1375 -8.1875 10.4375 C-12.05513446 8.56206646 -12.05513446 8.56206646 -16.1875 9.4375 C-17.88632448 11.93509982 -17.88632448 11.93509982 -19.1875 14.4375 C-22.4875 14.1075 -25.7875 13.7775 -29.1875 13.4375 C-30.31265014 10.06204958 -30.17556178 9.58181614 -28.75 6.5 C-26.69074198 2.73509391 -24.69182513 0.72731019 -20.73046875 -0.9375 C-14.17165088 -2.54949825 -6.20411076 -3.04925444 0 0 Z M-17.1875 26.4375 C-18.26517129 29.89725858 -18.26517129 29.89725858 -18.1875 33.4375 C-16.55115337 36.65027591 -16.55115337 36.65027591 -13.8125 36.9375 C-11.02379233 36.633491 -11.02379233 36.633491 -8.875 34.4375 C-6.62354548 30.43491418 -6.87970567 27.97746635 -7.1875 23.4375 C-11.42319066 23.0744408 -13.93105592 23.63333982 -17.1875 26.4375 Z " fill="#44e5e7" transform="translate(32.1875,2.5625)"/>
<path d="M0 0 C1.77697266 -0.02513672 1.77697266 -0.02513672 3.58984375 -0.05078125 C8.25944041 0.43771424 11.69802298 1.80687019 14.875 5.3125 C16.95156233 8.80986814 17.20976463 11.73206347 17.30859375 15.71484375 C17.34146484 16.76994141 17.37433594 17.82503906 17.40820312 18.91210938 C17.46929083 21.13336239 17.52659638 23.35472271 17.58007812 25.57617188 C17.61423828 26.63255859 17.64839844 27.68894531 17.68359375 28.77734375 C17.7086499 29.742771 17.73370605 30.70819824 17.75952148 31.70288086 C18.07088731 34.38474167 18.84689398 35.94177948 20.0625 38.3125 C20.0625 42.3125 20.0625 42.3125 17.375 45.125 C14.0625 47.3125 14.0625 47.3125 11.375 47.3125 C8.99779791 46.28452072 7.70130394 45.2963153 6.0625 43.3125 C5.32 43.9725 4.5775 44.6325 3.8125 45.3125 C-0.85340804 48.44166505 -6.55521807 48.1165825 -11.9375 47.3125 C-16.47767982 45.08099519 -18.18691774 43.10356724 -19.9375 38.3125 C-20.69075917 32.50164352 -19.41127321 27.97120459 -15.9375 23.3125 C-11.18298075 19.47358423 -6.17500371 18.16194847 -0.1875 18.25 C0.61171875 18.25902344 1.4109375 18.26804687 2.234375 18.27734375 C2.83765625 18.28894531 3.4409375 18.30054687 4.0625 18.3125 C3.7325 16.0025 3.4025 13.6925 3.0625 11.3125 C-1.51430658 10.14763791 -1.51430658 10.14763791 -5.9375 11.3125 C-7.23410434 13.80284386 -7.23410434 13.80284386 -7.9375 16.3125 C-11.2375 15.9825 -14.5375 15.6525 -17.9375 15.3125 C-18.38546936 12.25137604 -18.42631708 10.10744494 -16.77734375 7.42578125 C-11.89479295 1.46931902 -7.74532298 0.02522907 0 0 Z M-4.9375 27.3125 C-6.78289709 29.74506889 -6.97793977 30.88788239 -6.6875 33.9375 C-6.0890662 36.46850229 -6.0890662 36.46850229 -3.9375 38.3125 C-0.95271245 38.15943397 0.60078804 37.71052756 2.875 35.75 C4.61882063 32.1705787 4.26041008 29.27070158 4.0625 25.3125 C0.21527837 25.3125 -1.60541821 25.55877274 -4.9375 27.3125 Z " fill="#44e5e7" transform="translate(127.9375,0.6875)"/>
<path d="M0 0 C4.01459378 1.2442893 7.56262153 2.74458364 11.25 4.75 C38.87687745 18.76909786 74.93507142 23.24377818 104.77490234 14.15478516 C108.56110767 12.91444346 112.32729762 11.64011512 116.0612793 10.24975586 C123.77318273 7.43451212 123.77318273 7.43451212 128 9 C127.62955443 11.50184982 127.28657404 12.7283591 125.42578125 14.4921875 C102.84212403 29.26966376 74.83298893 33.3354703 48.4375 28.875 C30.41809091 24.86021534 11.81542748 16.63803938 -1 3 C-0.67 2.01 -0.34 1.02 0 0 Z " fill="#44e5e7" transform="translate(39,51)"/>
<path d="M0 0 C4.51854653 3.72115597 7.17841523 9.09925084 8.734375 14.65625 C8.775625 15.605 8.816875 16.55375 8.859375 17.53125 C8.941875 18.76875 9.024375 20.00625 9.109375 21.28125 C8.96653831 28.75160866 6.8150829 35.68232017 1.58203125 41.12109375 C-2.88341672 44.77648313 -7.42923508 45.81392641 -13.140625 45.65625 C-18.94380422 44.83361134 -22.44475057 41.94675382 -26.140625 37.53125 C-30.32450817 30.64808736 -30.92889691 21.71406389 -29.578125 13.84375 C-27.81305202 7.38358289 -24.53677986 2.02319548 -18.828125 -1.53125 C-12.11530708 -3.23789862 -6.1895881 -3.46616934 0 0 Z M-14.77734375 9.00390625 C-16.81179305 12.77550711 -16.53777309 16.25327506 -16.453125 20.46875 C-16.45634766 21.26732422 -16.45957031 22.06589844 -16.46289062 22.88867188 C-16.42416234 27.13822107 -16.29428884 30.74377221 -14.140625 34.53125 C-11.73952283 35.61149658 -11.73952283 35.61149658 -9.140625 35.53125 C-5.89212523 33.80898504 -5.89212523 33.80898504 -5.140625 30.53125 C-4.89018357 27.3897279 -4.90944793 24.24423762 -4.890625 21.09375 C-4.87 20.23458984 -4.849375 19.37542969 -4.828125 18.49023438 C-4.779996 13.53290694 -4.779996 13.53290694 -6.5 8.96484375 C-8.10452808 7.322869 -8.10452808 7.322869 -10.640625 7.03125 C-13.18457535 7.31900172 -13.18457535 7.31900172 -14.77734375 9.00390625 Z " fill="#44e5e7" transform="translate(218.140625,3.46875)"/>
<path d="M0 0 C4.01292425 2.08077554 6.49825035 3.72040254 8 8 C8.2692579 10.97617267 8.23234202 13.93574213 8.1953125 16.921875 C8.1924826 17.78186096 8.18965271 18.64184692 8.18673706 19.52789307 C8.1755615 22.26873821 8.15046179 25.00925398 8.125 27.75 C8.1149668 29.61067236 8.10584155 31.47134985 8.09765625 33.33203125 C8.07563076 37.88814732 8.04111897 42.44401786 8 47 C6.18757948 47.02687279 4.37504767 47.04633715 2.5625 47.0625 C1.55316406 47.07410156 0.54382813 47.08570313 -0.49609375 47.09765625 C-3 47 -3 47 -4 46 C-4.13445554 43.74470221 -4.20368039 41.48546655 -4.24609375 39.2265625 C-4.27903645 37.830723 -4.31224802 36.43488982 -4.34570312 35.0390625 C-4.39310789 32.83142523 -4.43752112 30.62381286 -4.47680664 28.41601562 C-4.51653695 26.29008733 -4.56808408 24.16469531 -4.62109375 22.0390625 C-4.6461499 20.76240723 -4.67120605 19.48575195 -4.69702148 18.17041016 C-4.76272677 14.84345995 -4.76272677 14.84345995 -7 12 C-9.49552484 12.78130071 -9.49552484 12.78130071 -12 14 C-13.12109594 17.36328782 -13.19125235 20.05766561 -13.28125 23.6015625 C-13.31863281 24.89578125 -13.35601562 26.19 -13.39453125 27.5234375 C-13.4482887 29.58200266 -13.50039306 31.64060482 -13.55224609 33.69921875 C-13.60384945 35.68760498 -13.66120661 37.6758393 -13.71875 39.6640625 C-13.76418945 41.44997803 -13.76418945 41.44997803 -13.81054688 43.27197266 C-14 46 -14 46 -15 47 C-16.66429051 47.09823937 -18.33281931 47.12973631 -20 47.125 C-21.36125 47.12886719 -21.36125 47.12886719 -22.75 47.1328125 C-25 47 -25 47 -26 46 C-26.0928726 44.58774954 -26.11746772 43.17091066 -26.11352539 41.75561523 C-26.11344986 40.85475693 -26.11337433 39.95389862 -26.11329651 39.02574158 C-26.10813522 38.04658279 -26.10297394 37.06742401 -26.09765625 36.05859375 C-26.0962413 35.06118668 -26.09482635 34.0637796 -26.09336853 33.03614807 C-26.08775114 29.83656876 -26.07519571 26.63705831 -26.0625 23.4375 C-26.05748724 21.27408955 -26.05292395 19.11067801 -26.04882812 16.94726562 C-26.03777606 11.63148371 -26.02049979 6.31575354 -26 1 C-22.37 1 -18.74 1 -15 1 C-14.67 2.32 -14.34 3.64 -14 5 C-13.38125 4.360625 -12.7625 3.72125 -12.125 3.0625 C-8.47232178 -0.48274651 -4.92297217 -0.66798693 0 0 Z " fill="#44e5e7" transform="translate(258,1)"/>
<path d="M0 0 C4.25414623 -0.02465622 8.50825498 -0.04283899 12.76245117 -0.05493164 C14.21070073 -0.05997101 15.65894517 -0.06680253 17.10717773 -0.07543945 C19.18474588 -0.08752247 21.26224697 -0.09323211 23.33984375 -0.09765625 C24.59144287 -0.10289307 25.84304199 -0.10812988 27.13256836 -0.11352539 C30 0 30 0 31 1 C32.1097465 7.38104237 29.55928952 10.92284279 26.0234375 16.1328125 C25.35570312 17.07898438 24.68796875 18.02515625 24 19 C23.33226562 19.96679688 22.66453125 20.93359375 21.9765625 21.9296875 C20.33297723 24.29779199 18.67448248 26.65368868 17 29 C17.74765625 29.18175781 18.4953125 29.36351563 19.265625 29.55078125 C20.25046875 29.80214844 21.2353125 30.05351563 22.25 30.3125 C23.22453125 30.55613281 24.1990625 30.79976562 25.203125 31.05078125 C28.06029876 32.02046452 29.8610687 32.87616704 32 35 C32.72720693 38.36916972 32.55460305 41.89079391 31 45 C30.23816406 44.7834375 29.47632813 44.566875 28.69140625 44.34375 C20.65217785 42.17586818 13.62504082 40.39040726 5.6875 43.5625 C2.00739077 44.99711885 1.45590271 45.15196757 -2 44 C-3.2315448 34.98821979 -0.19476388 30.13338953 5 23 C5.82662137 21.8072465 6.64939852 20.61182164 7.46875 19.4140625 C9.62622182 16.26200846 11.80721326 13.12758018 14 10 C12.60974609 10.01740234 12.60974609 10.01740234 11.19140625 10.03515625 C9.99386719 10.04417969 8.79632813 10.05320312 7.5625 10.0625 C6.36753906 10.07410156 5.17257813 10.08570313 3.94140625 10.09765625 C1 10 1 10 0 9 C-0.07179964 7.48071962 -0.08392007 5.95832518 -0.0625 4.4375 C-0.05347656 3.61121094 -0.04445312 2.78492188 -0.03515625 1.93359375 C-0.02355469 1.29550781 -0.01195312 0.65742187 0 0 Z " fill="#44e5e7" transform="translate(154,2)"/>
<path d="M0 0 C1.07217773 0.00773437 1.07217773 0.00773437 2.16601562 0.015625 C7.37588071 0.09419035 7.37588071 0.09419035 9.6875 1.25 C11.732918 6.70043737 9.78819744 12.64034642 7.61328125 17.796875 C5.3230725 22.21835056 3.43888329 25.21369288 -1.3125 27.25 C-2.58636134 23.42841598 -1.74530593 22.04508416 -0.375 18.3125 C0.98952484 14.57971509 1.6875 12.27485683 1.6875 8.25 C-1.62244713 6.59502644 -5.30373 7.14915665 -8.9375 7.1875 C-10.14019531 7.19426758 -10.14019531 7.19426758 -11.3671875 7.20117188 C-13.34899006 7.21296832 -15.33075433 7.23090395 -17.3125 7.25 C-16.2889403 3.95186317 -15.28286311 3.23344808 -12.20703125 1.515625 C-8.12245493 -0.046654 -4.32746382 -0.12833998 0 0 Z " fill="#44e5e7" transform="translate(169.3125,48.75)"/>
</svg>
